<svg width="123" height="99" viewBox="0 0 123 99" fill="none" xmlns="http://www.w3.org/2000/svg">
<path d="M20.5516 20.68H33.2236C39.5116 20.68 43.9516 22.12 46.5436 25C49.1836 27.88 50.5036 32.368 50.5036 38.464V59.92C50.5036 66.352 49.2076 71.152 46.6156 74.32C44.0716 77.44 39.8236 79 33.8716 79H20.5516V20.68ZM33.2956 73.168C36.1276 73.168 38.1676 72.616 39.4156 71.512C40.7116 70.408 41.5036 68.92 41.7916 67.048C42.1276 65.128 42.2956 62.248 42.2956 58.408V39.472C42.2956 36.16 42.0796 33.64 41.6476 31.912C41.2636 30.136 40.4236 28.84 39.1276 28.024C37.8316 27.16 35.8156 26.728 33.0796 26.728H28.6876V73.168H33.2956Z" fill="black"/>
<path d="M20.5516 20.68V0.679996H0.551624V20.68H20.5516ZM46.5436 25L31.6777 38.3793L31.7388 38.4472L31.8005 38.5145L46.5436 25ZM46.6156 74.32L31.1365 61.6552L31.1259 61.6682L31.1153 61.6812L46.6156 74.32ZM20.5516 79H0.551624V99H20.5516V79ZM39.4156 71.512L26.4463 56.2871L26.3041 56.4083L26.1641 56.5321L39.4156 71.512ZM41.7916 67.048L22.091 63.6004L22.0555 63.8033L22.0242 64.0069L41.7916 67.048ZM41.6476 31.912L22.0993 36.1386L22.1671 36.4518L22.2448 36.7627L41.6476 31.912ZM39.1276 28.024L28.0336 44.665L28.2507 44.8097L28.4714 44.9487L39.1276 28.024ZM28.6876 26.728V6.728H8.68763V26.728H28.6876ZM28.6876 73.168H8.68763V93.168H28.6876V73.168ZM20.5516 40.68H33.2236V0.679996H20.5516V40.68ZM33.2236 40.68C34.9503 40.68 35.4284 40.8911 35.0995 40.7845C34.6596 40.6418 33.1724 40.04 31.6777 38.3793L61.4095 11.6207C53.214 2.51454 41.7476 0.679996 33.2236 0.679996V40.68ZM31.8005 38.5145C30.6898 37.3028 30.3595 36.2821 30.3263 36.1693C30.3127 36.123 30.3604 36.2722 30.4099 36.6687C30.4592 37.0643 30.5036 37.6529 30.5036 38.464H70.5036C70.5036 30.0562 68.7688 19.6477 61.2867 11.4855L31.8005 38.5145ZM30.5036 38.464V59.92H70.5036V38.464H30.5036ZM30.5036 59.92C30.5036 61.8613 30.3007 62.8432 30.223 63.1307C30.1564 63.3773 30.3032 62.6737 31.1365 61.6552L62.0948 86.9848C68.8708 78.7029 70.5036 68.4816 70.5036 59.92H30.5036ZM31.1153 61.6812C31.7044 60.9587 32.3693 60.3609 33.0403 59.8986C33.6999 59.444 34.2652 59.1888 34.6272 59.0559C35.2848 58.8144 35.1954 59 33.8716 59V99C42.8791 99 54.2346 96.6247 62.116 86.9588L31.1153 61.6812ZM33.8716 59H20.5516V99H33.8716V59ZM40.5516 79V20.68H0.551624V79H40.5516ZM33.2956 93.168C37.863 93.168 45.9455 92.4379 52.6671 86.4919L26.1641 56.5321C28.3816 54.5705 30.5478 53.767 31.7257 53.4483C32.8738 53.1376 33.5045 53.168 33.2956 53.168V93.168ZM52.385 86.7369C57.7538 82.1634 60.629 76.1346 61.5591 70.0891L22.0242 64.0069C22.1802 62.9926 22.5443 61.641 23.3267 60.171C24.1243 58.6725 25.1995 57.3492 26.4463 56.2871L52.385 86.7369ZM61.4922 70.4956C62.1369 66.8117 62.2956 62.5209 62.2956 58.408H22.2956C22.2956 60.0578 22.259 61.3335 22.2036 62.2833C22.1452 63.2837 22.0805 63.6604 22.091 63.6004L61.4922 70.4956ZM62.2956 58.408V39.472H22.2956V58.408H62.2956ZM62.2956 39.472C62.2956 35.6675 62.0838 31.1947 61.0505 27.0613L22.2448 36.7627C22.1206 36.2661 22.1551 36.2042 22.2067 36.806C22.2538 37.3557 22.2956 38.2229 22.2956 39.472H62.2956ZM61.1959 27.6853C59.9038 21.7095 56.47 15.3091 49.7839 11.0993L28.4714 44.9487C26.6411 43.7963 25.0919 42.2531 23.9466 40.4859C22.8399 38.7784 22.3304 37.2075 22.0993 36.1386L61.1959 27.6853ZM50.2216 11.383C43.9834 7.22421 37.1407 6.728 33.0796 6.728V46.728C33.4663 46.728 33.1853 46.765 32.453 46.608C31.7508 46.4576 30.0406 46.003 28.0336 44.665L50.2216 11.383ZM33.0796 6.728H28.6876V46.728H33.0796V6.728ZM8.68763 26.728V73.168H48.6876V26.728H8.68763ZM28.6876 93.168H33.2956V53.168H28.6876V93.168Z" fill="black"/>
<path d="M18.736 67.336C15.236 67.336 13.486 65.404 13.486 61.54V45.706H10.924V42.724H13.486V35.626H17.98V42.724H21.886V45.706H17.98V61.246C17.98 62.226 18.134 62.912 18.442 63.304C18.75 63.696 19.338 63.892 20.206 63.892C20.766 63.892 21.312 63.85 21.844 63.766V67.084C20.724 67.252 19.688 67.336 18.736 67.336ZM25.3139 32.98H29.8079V45.244C31.8239 43.34 33.8539 42.388 35.8979 42.388C37.2139 42.388 38.1379 42.864 38.6699 43.816C39.2299 44.768 39.5099 45.944 39.5099 47.344V67H35.0159V48.646C35.0159 47.722 34.8759 47.036 34.5959 46.588C34.3159 46.14 33.8119 45.916 33.0839 45.916C32.1039 45.916 31.0119 46.448 29.8079 47.512V67H25.3139V32.98ZM50.611 67.336C48.735 67.336 47.279 66.986 46.243 66.286C45.207 65.558 44.479 64.494 44.059 63.094C43.639 61.694 43.429 59.874 43.429 57.634V52.09C43.429 48.73 43.947 46.28 44.983 44.74C46.047 43.172 47.923 42.388 50.611 42.388C52.571 42.388 54.041 42.794 55.021 43.606C56.029 44.418 56.687 45.566 56.995 47.05C57.331 48.506 57.499 50.48 57.499 52.972V54.946H47.923V59.818C47.923 61.302 48.133 62.38 48.553 63.052C49.001 63.696 49.701 64.018 50.653 64.018C51.605 64.018 52.249 63.696 52.585 63.052C52.921 62.38 53.089 61.372 53.089 60.028V58.558H57.457V59.482C57.457 62.03 56.911 63.976 55.819 65.32C54.727 66.664 52.991 67.336 50.611 67.336ZM53.089 52.51V50.326C53.089 48.674 52.921 47.498 52.585 46.798C52.277 46.07 51.605 45.706 50.569 45.706C49.841 45.706 49.281 45.874 48.889 46.21C48.525 46.546 48.273 47.106 48.133 47.89C47.993 48.646 47.923 49.752 47.923 51.208V52.51H53.089Z" fill="white"/>
<path d="M87.336 97.576C82.92 97.576 79.776 96.28 77.904 93.688C76.08 91.048 75.168 87.232 75.168 82.24V70.144C75.168 65.152 76.08 61.36 77.904 58.768C79.776 56.128 82.92 54.808 87.336 54.808C91.704 54.808 94.8 56.128 96.624 58.768C98.496 61.36 99.432 65.152 99.432 70.144V82.24C99.432 87.232 98.496 91.048 96.624 93.688C94.8 96.28 91.704 97.576 87.336 97.576ZM87.336 91.888C88.728 91.888 89.736 91.48 90.36 90.664C90.984 89.848 91.368 88.84 91.512 87.64C91.656 86.44 91.728 84.808 91.728 82.744V69.712C91.728 67.648 91.656 66.016 91.512 64.816C91.368 63.568 90.984 62.536 90.36 61.72C89.736 60.904 88.728 60.496 87.336 60.496C85.944 60.496 84.912 60.904 84.24 61.72C83.616 62.536 83.232 63.568 83.088 64.816C82.944 66.016 82.872 67.648 82.872 69.712V82.744C82.872 84.808 82.944 86.44 83.088 87.64C83.232 88.84 83.616 89.848 84.24 90.664C84.912 91.48 85.944 91.888 87.336 91.888ZM117.562 97.576C111.562 97.576 108.562 94.264 108.562 87.64V60.496H104.17V55.384H108.562V43.216H116.266V55.384H122.962V60.496H116.266V87.136C116.266 88.816 116.53 89.992 117.058 90.664C117.586 91.336 118.594 91.672 120.082 91.672C121.042 91.672 121.978 91.6 122.89 91.456V97.144C120.97 97.432 119.194 97.576 117.562 97.576Z" fill="black"/>
</svg>
